<svg width="1200" height="14" viewBox="0 0 1200 14" xmlns="http://www.w3.org/2000/svg"><path d="M20 10.42L33 11 28.002 0zM10 6.97L0 3l.858 9zM43 1l.613 11L53 5.585zm89 13l11-5.867L133.507 1zm67-3.58l13 .58-4.998-11zm-10-3.45L179 3l.858 9zM90.634 1L88 13l12-4.39zM155 13l12-2.4-8.47-9.6zM110 3l2.057 9L118 6.292zm-47 8.215L76 14 71.048 1zM222 1l.613 11L232 5.585zm47.634 0L267 13l12-4.39zM289 3l2.057 9L297 6.292zm-48 8.215L254 14l-4.952-13zM320 10.42L333 11 328.002 0zM310 6.97L300 3l.858 9zM343 1l.613 11L353 5.585zm89 13l11-5.867L433.507 1zm67-3.58l13 .58-4.998-11zm-10-3.45L479 3l.858 9zM390.634 1L388 13l12-4.39zM455 13l12-2.4-8.47-9.6zM410 3l2.057 9L418 6.292zm-47 8.215L376 14 371.048 1zM522 1l.613 11L532 5.585zm47.634 0L567 13l12-4.39zM589 3l2.057 9L597 6.292zm-48 8.215L554 14l-4.952-13zM620 10.42L633 11 628.002 0zM610 6.97L600 3l.858 9zM643 1l.613 11L653 5.585zm89 13l11-5.867L733.507 1zm67-3.58l13 .58-4.998-11zm-10-3.45L779 3l.858 9zM690.634 1L688 13l12-4.39zM755 13l12-2.4-8.47-9.6zM710 3l2.057 9L718 6.292zm-47 8.215L676 14 671.048 1zM822 1l.613 11L832 5.585zm47.634 0L867 13l12-4.39zM889 3l2.057 9L897 6.292zm-48 8.215L854 14l-4.952-13zM920 10.42L933 11 928.002 0zM910 6.97L900 3l.858 9zM943 1l.613 11L953 5.585zm89 13l11-5.867L1033.507 1zm67-3.58l13 .58-4.998-11zm-10-3.45L1079 3l.858 9zM990.634 1L988 13l12-4.39zM1055 13l12-2.4-8.47-9.6zM1010 3l2.057 9L1018 6.292zm-47 8.215L976 14 971.048 1zM1122 1l.613 11L1132 5.585zm47.634 0L1167 13l12-4.39zM1189 3l2.057 9L1197 6.292zm-48 8.215L1154 14l-4.952-13z" fill="#C8CAD1" fill-rule="evenodd"/></svg>
